<svg width="64" height="64" viewBox="0 0 64 64" fill="none" xmlns="http://www.w3.org/2000/svg">
  <rect x="7" y="7" width="50" height="50" fill="currentColor" opacity="0.08"/>
  <path d="M27 21L22 16H14V29L19 34" stroke="currentColor" stroke-width="2" stroke-linejoin="miter"/>
  <path d="M37 21L42 16H50V29L45 34" stroke="currentColor" stroke-width="2" stroke-linejoin="miter"/>
  <path d="M21 31L30 22C32 20 34 20 36 22L47 33L39 41C37.5 42.5 35.5 42.5 34 41L22 29" stroke="currentColor" stroke-width="2" stroke-linejoin="miter"/>
  <path d="M17 35L28 46C29.5 47.5 31.5 47.5 33 46L36 43" stroke="currentColor" stroke-width="2" stroke-linejoin="miter"/>
  <path d="M27 36L32 41M32 32L39 39" stroke="currentColor" stroke-width="2"/>
  <rect x="12" y="14" width="7" height="17" fill="currentColor"/>
  <rect x="45" y="14" width="7" height="17" fill="currentColor"/>
</svg>
