<svg width="48" height="48" viewBox="0 0 48 48" fill="none" xmlns="http://www.w3.org/2000/svg">
<rect y="0.708672" width="14.4845" height="5.55724" rx="1.5" transform="matrix(0.705538 0.708672 -0.705538 0.708672 9.12646 25.6475)" stroke="#4DA7A8" stroke-linecap="round" stroke-linejoin="round"/>
<rect x="-0.705538" width="14.4845" height="5.55724" rx="1.5" transform="matrix(-0.705538 0.708672 -0.705538 -0.708672 42.7967 31.5266)" stroke="#4DA7A8" stroke-linecap="round" stroke-linejoin="round"/>
<path d="M33.3647 36.2856C33.819 36.2856 34.1916 36.656 34.1919 37.1177C34.1919 37.5795 33.8192 37.9507 33.3647 37.9507C32.9105 37.9504 32.5386 37.5794 32.5386 37.1177C32.5388 36.6562 32.9107 36.2859 33.3647 36.2856Z" stroke="#4DA7A8" stroke-linecap="round" stroke-linejoin="round"/>
<rect y="0.708672" width="5.97328" height="3.79838" rx="1.89919" transform="matrix(0.705538 0.708672 -0.705538 0.708672 12.0215 17.1017)" stroke="#4DA7A8" stroke-linecap="round" stroke-linejoin="round"/>
<rect y="0.708672" width="7.98884" height="3.96647" rx="1.98324" transform="matrix(0.705538 0.708672 -0.705538 0.708672 13.5605 13.0256)" stroke="#4DA7A8" stroke-linecap="round" stroke-linejoin="round"/>
<rect y="0.708672" width="8.89824" height="4.07027" rx="2.03514" transform="matrix(0.705538 0.708672 -0.705538 0.708672 15.8262 9.57433)" stroke="#4DA7A8" stroke-linecap="round" stroke-linejoin="round"/>
<rect y="0.708672" width="9.91366" height="3.80916" rx="1.90458" transform="matrix(0.705538 0.708672 -0.705538 0.708672 17.7744 6.20646)" stroke="#4DA7A8" stroke-linecap="round" stroke-linejoin="round"/>
<path d="M28.2958 13.7075L30.7582 11.2341C31.66 10.3283 31.66 8.85959 30.7582 7.95375C29.8564 7.04791 28.3942 7.04791 27.4924 7.95375L23.4152 12.049" stroke="#4DA7A8" stroke-linecap="round" stroke-linejoin="round"/>
<path d="M30.2562 18.1922L33.1057 15.33C33.9968 14.4349 33.9968 12.9837 33.1057 12.0886C32.2146 11.1935 30.7698 11.1935 29.8786 12.0886L28.3707 13.6032" stroke="#4DA7A8" stroke-linecap="round" stroke-linejoin="round"/>
<path d="M31.8672 22.8223L35.0816 19.5936C35.9354 18.7361 35.9354 17.3458 35.0816 16.4883C34.2279 15.6308 32.8438 15.6308 31.9901 16.4883L30.4144 18.071" stroke="#4DA7A8" stroke-linecap="round" stroke-linejoin="round"/>
<path d="M29.5501 31.2786L36.7519 24.0448C37.5882 23.2048 37.5882 21.8429 36.7519 21.0029C35.9156 20.1629 34.5597 20.1629 33.7235 21.0029L32.1162 22.6172" stroke="#4DA7A8" stroke-linecap="round" stroke-linejoin="round"/>
<path d="M18 35.5002L21 33.0002C21.1821 32.556 22.6895 32.1957 25.5613 32.7287C26.4067 32.794 28.3394 32.6503 29.307 31.5529" stroke="#4DA7A8" stroke-linecap="round" stroke-linejoin="round"/>
<path d="M19.7866 8.78261C19.7606 8.27312 19.9349 7.25414 20.8401 7.25414C21.7453 7.25414 24.0006 7.25414 25.015 7.25414C25.6003 7.52848 26.646 8.33582 26.1466 9.37048" stroke="#4DA7A8" stroke-linecap="round" stroke-linejoin="round"/>
<path d="M10 27L13 24" stroke="#4DA7A8" stroke-linecap="round" stroke-linejoin="round"/>
<path d="M26.3965 33.1598L29.9081 36.687" stroke="#4DA7A8" stroke-linecap="round" stroke-linejoin="round"/>
<path d="M35.917 24.9687L38.4922 27.6338" stroke="#4DA7A8" stroke-linecap="round" stroke-linejoin="round"/>
</svg>
