<svg width="48" height="48" viewBox="0 0 48 48" fill="none" xmlns="http://www.w3.org/2000/svg">
<path d="M12.9624 36.0893V11.8487C22.585 5.78388 31.8461 9.32169 35.2737 11.8487V36.0893C26.1416 42.2664 16.5945 38.6631 12.9624 36.0893Z" stroke="#4DA7A8" stroke-linecap="round" stroke-linejoin="round"/>
<path d="M13.0566 12.8782C16.7673 14.9685 26.3774 17.8948 35.1321 12.8782" stroke="#4DA7A8" stroke-linecap="round" stroke-linejoin="round"/>
<path d="M12.9624 18.681C16.6731 20.7712 26.2832 23.6976 35.0379 18.681" stroke="#4DA7A8" stroke-linecap="round" stroke-linejoin="round"/>
<path d="M12.9624 18.681C16.6731 20.7712 26.2832 23.6976 35.0379 18.681" stroke="#4DA7A8" stroke-linecap="round" stroke-linejoin="round"/>
<path d="M12.9624 24.9517C16.6731 27.0419 26.2832 29.9683 35.0379 24.9517" stroke="#4DA7A8" stroke-linecap="round" stroke-linejoin="round"/>
<path d="M12.9624 31.2224C16.6731 33.3127 26.2832 36.239 35.0379 31.2224" stroke="#4DA7A8" stroke-linecap="round" stroke-linejoin="round"/>
<path d="M12.6794 19.4765H8.1298C6.65664 19.4765 5.4624 18.2823 5.4624 16.8091" stroke="#4DA7A8" stroke-linecap="round" stroke-linejoin="round"/>
<ellipse cx="5.50943" cy="15.3116" rx="1.50943" ry="1.49749" stroke="#4DA7A8" stroke-linecap="round" stroke-linejoin="round"/>
<path d="M12.6791 28.0871H8.12988C6.68256 28.0871 5.50928 29.2604 5.50928 30.7077" stroke="#4DA7A8" stroke-linecap="round" stroke-linejoin="round"/>
<ellipse cx="1.50943" cy="1.49749" rx="1.50943" ry="1.49749" transform="matrix(1 0 0 -1 4 33.7027)" stroke="#4DA7A8" stroke-linecap="round" stroke-linejoin="round"/>
<path d="M35.3208 19.1723H39.9644C41.4117 19.1723 42.585 17.9991 42.585 16.5517" stroke="#4DA7A8" stroke-linecap="round" stroke-linejoin="round"/>
<ellipse cx="1.50943" cy="1.49749" rx="1.50943" ry="1.49749" transform="matrix(-1 0 0 1 44 13.5568)" stroke="#4DA7A8" stroke-linecap="round" stroke-linejoin="round"/>
<path d="M35.3208 28.3211H39.9644C41.4117 28.3211 42.585 29.4943 42.585 30.9417" stroke="#4DA7A8" stroke-linecap="round" stroke-linejoin="round"/>
<ellipse cx="42.4906" cy="32.4391" rx="1.50943" ry="1.49749" transform="rotate(180 42.4906 32.4391)" stroke="#4DA7A8" stroke-linecap="round" stroke-linejoin="round"/>
<ellipse cx="5.50109" cy="23.8286" rx="1.50109" ry="1.49749" stroke="#4DA7A8" stroke-linecap="round" stroke-linejoin="round"/>
<path d="M12.4905 23.8754H7.47119" stroke="#4DA7A8" stroke-linecap="round" stroke-linejoin="round"/>
<ellipse cx="42.4904" cy="23.8286" rx="1.50943" ry="1.49749" stroke="#4DA7A8" stroke-linecap="round" stroke-linejoin="round"/>
<path d="M40.368 23.8754H35.3208" stroke="#4DA7A8" stroke-linecap="round" stroke-linejoin="round"/>
</svg>
