<svg width="48" height="48" viewBox="0 0 48 48" fill="none" xmlns="http://www.w3.org/2000/svg">
<path d="M32.1999 21.3907V25.6353M23.6108 25.6353H40.8871M25.1323 36.8884C27.6354 36.3784 33.3778 33.5223 36.3226 26.1782" stroke="#8B8B8B" stroke-linecap="round" stroke-linejoin="round"/>
<path d="M28.2803 26.1349C29.7099 29.3211 33.8904 35.9325 39.1752 36.8884" stroke="#8B8B8B" stroke-linecap="round" stroke-linejoin="round"/>
<path d="M39.9668 17.1541H24.913C21.6179 17.1541 20.696 19.3396 20.647 20.4324V26.989C20.4901 33.9429 16.3319 39.2246 14.2725 40.9962C21.4479 40.9465 36.652 40.877 40.0648 40.9962C43.4777 41.1154 44.102 38.3968 43.9876 37.0225V22.3199C43.9876 17.6707 41.307 16.9389 39.9668 17.1541Z" stroke="#8B8B8B" stroke-linecap="round" stroke-linejoin="round"/>
<path d="M28.4656 14.1009C29.4967 11.7505 31.7651 7.35753 33.572 7H6.56721C5.58522 7.14897 4.01403 8.18182 4.01403 10.1284C4.01403 12.0749 4.01403 22.5922 4.01403 27.6075C3.89947 28.6503 4.43629 30.7558 7.5001 30.8352C10.5639 30.9147 15.1269 30.8683 17.0254 30.8352" stroke="#8B8B8B" stroke-linecap="round" stroke-linejoin="round"/>
<path d="M8.35791 22.6558L12.8715 11.4279L17.3851 22.6558M10.3204 18.8134H15.5208" stroke="#8B8B8B" stroke-linecap="round" stroke-linejoin="round"/>
</svg>
