<svg width="24" height="24" viewBox="0 0 24 24" fill="none" xmlns="http://www.w3.org/2000/svg">
<path fill-rule="evenodd" clip-rule="evenodd" d="M13.0579 5.56718C12.4425 6.4291 11.2442 8.0943 10.3951 9.26755C6.98657 13.9772 6 15.3747 6 15.4931C6 15.7436 6.59085 16.4876 6.78977 16.4876C6.90191 16.4876 7.60857 16.3423 8.36029 16.1647C9.1119 15.9872 10.2776 15.7181 10.9506 15.5669L12.1744 15.2919L14.5107 17.6459L16.8469 20L17.4032 19.7066C17.7091 19.5451 17.9774 19.3977 17.9994 19.3787C18.0214 19.3598 17.4707 15.9647 16.7756 11.8339C15.8296 6.21151 15.47 4.30138 15.345 4.23553C15.2533 4.18717 14.9529 4.11443 14.6775 4.07384L14.1769 4L13.0579 5.56718Z" fill="#4DA7A8"/>
</svg>
